<?xml version="1.0" encoding="UTF-8" standalone="no"?>
<!DOCTYPE svg PUBLIC "-//W3C//DTD SVG 1.1//EN"
 "http://www.w3.org/Graphics/SVG/1.1/DTD/svg11.dtd">
<!-- Generated by graphviz version 2.43.0 (0)
 -->
<!-- Title: series_arc Pages: 1 -->
<svg width="1853pt" height="346pt"
 viewBox="0.00 0.00 1853.07 345.80" xmlns="http://www.w3.org/2000/svg" xmlns:xlink="http://www.w3.org/1999/xlink">
<g id="graph0" class="graph" transform="scale(1 1) rotate(0) translate(4 341.8)">
<title>series_arc</title>
<polygon fill="#fbfbf8" stroke="transparent" points="-4,4 -4,-341.8 1849.07,-341.8 1849.07,4 -4,4"/>
<text text-anchor="start" x="638.53" y="-321.8" font-family="Inter" font-size="15.00" fill="#1f2933">ADK Genmedia Series — crawl → walk → run</text>
<text text-anchor="start" x="638.53" y="-304.8" font-family="Inter" font-size="15.00" fill="#1f2933">ADK weight rises monotonically; each step adds exactly one ADK construct.</text>
<g id="clust1" class="cluster">
<title>cluster_crawl</title>
<path fill="#f1f3f4" stroke="#9aa5b1" d="M296,-125.8C296,-125.8 1013.02,-125.8 1013.02,-125.8 1019.02,-125.8 1025.02,-131.8 1025.02,-137.8 1025.02,-137.8 1025.02,-195.8 1025.02,-195.8 1025.02,-201.8 1019.02,-207.8 1013.02,-207.8 1013.02,-207.8 296,-207.8 296,-207.8 290,-207.8 284,-201.8 284,-195.8 284,-195.8 284,-137.8 284,-137.8 284,-131.8 290,-125.8 296,-125.8"/>
<text text-anchor="middle" x="654.51" y="-193.4" font-family="Space Grotesk" font-size="13.00" fill="#5b4fe9">CRAWL — single agent</text>
</g>
<g id="clust2" class="cluster">
<title>cluster_walk</title>
<path fill="#f1f3f4" stroke="#9aa5b1" d="M1132.02,-164.8C1132.02,-164.8 1308.02,-164.8 1308.02,-164.8 1314.02,-164.8 1320.02,-170.8 1320.02,-176.8 1320.02,-176.8 1320.02,-234.8 1320.02,-234.8 1320.02,-240.8 1314.02,-246.8 1308.02,-246.8 1308.02,-246.8 1132.02,-246.8 1132.02,-246.8 1126.02,-246.8 1120.02,-240.8 1120.02,-234.8 1120.02,-234.8 1120.02,-176.8 1120.02,-176.8 1120.02,-170.8 1126.02,-164.8 1132.02,-164.8"/>
<text text-anchor="middle" x="1220.02" y="-232.4" font-family="Space Grotesk" font-size="13.00" fill="#5b4fe9">WALK — first pipeline</text>
</g>
<g id="clust3" class="cluster">
<title>cluster_run</title>
<path fill="#f1f3f4" stroke="#9aa5b1" d="M1427.02,-164.8C1427.02,-164.8 1626.02,-164.8 1626.02,-164.8 1632.02,-164.8 1638.02,-170.8 1638.02,-176.8 1638.02,-176.8 1638.02,-234.8 1638.02,-234.8 1638.02,-240.8 1632.02,-246.8 1626.02,-246.8 1626.02,-246.8 1427.02,-246.8 1427.02,-246.8 1421.02,-246.8 1415.02,-240.8 1415.02,-234.8 1415.02,-234.8 1415.02,-176.8 1415.02,-176.8 1415.02,-170.8 1421.02,-164.8 1427.02,-164.8"/>
<text text-anchor="middle" x="1526.52" y="-232.4" font-family="Space Grotesk" font-size="13.00" fill="#5b4fe9">RUN — multi&#45;agent app</text>
</g>
<g id="clust4" class="cluster">
<title>cluster_legend</title>
<path fill="#fbfbf8" stroke="#9aa5b1" d="M53.5,-215.8C53.5,-215.8 702.36,-215.8 702.36,-215.8 708.36,-215.8 714.36,-221.8 714.36,-227.8 714.36,-227.8 714.36,-275.8 714.36,-275.8 714.36,-281.8 708.36,-287.8 702.36,-287.8 702.36,-287.8 53.5,-287.8 53.5,-287.8 47.5,-287.8 41.5,-281.8 41.5,-275.8 41.5,-275.8 41.5,-227.8 41.5,-227.8 41.5,-221.8 47.5,-215.8 53.5,-215.8"/>
<text text-anchor="middle" x="377.93" y="-275" font-family="Inter" font-size="11.00" fill="#1f2933">Legend</text>
</g>
<!-- t0 -->
<g id="node1" class="node">
<title>t0</title>
<path fill="#e8e6fd" stroke="#5b4fe9" stroke-width="1.6" d="M169,-183.8C169,-183.8 12,-183.8 12,-183.8 6,-183.8 0,-177.8 0,-171.8 0,-171.8 0,-139.8 0,-139.8 0,-133.8 6,-127.8 12,-127.8 12,-127.8 169,-127.8 169,-127.8 175,-127.8 181,-133.8 181,-139.8 181,-139.8 181,-171.8 181,-171.8 181,-177.8 175,-183.8 169,-183.8"/>
<text text-anchor="middle" x="90.5" y="-171" font-family="Inter" font-size="11.00" fill="#1f2933">Tier 0 · Meet ADK</text>
<text text-anchor="middle" x="90.5" y="-159" font-family="Inter" font-size="11.00" fill="#1f2933">(refreshed adk/ sample)</text>
<text text-anchor="middle" x="90.5" y="-147" font-family="Inter" font-size="11.00" fill="#1f2933">LlmAgent + 4 MCPToolsets</text>
<text text-anchor="middle" x="90.5" y="-135" font-family="Inter" font-size="11.00" fill="#1f2933">LLM drives across many tools</text>
</g>
<!-- p1 -->
<g id="node2" class="node">
<title>p1</title>
<path fill="#e8e6fd" stroke="#5b4fe9" stroke-width="1.6" d="M438,-177.8C438,-177.8 304,-177.8 304,-177.8 298,-177.8 292,-171.8 292,-165.8 292,-165.8 292,-145.8 292,-145.8 292,-139.8 298,-133.8 304,-133.8 304,-133.8 438,-133.8 438,-133.8 444,-133.8 450,-139.8 450,-145.8 450,-145.8 450,-165.8 450,-165.8 450,-171.8 444,-177.8 438,-177.8"/>
<text text-anchor="middle" x="371" y="-165" font-family="Inter" font-size="11.00" fill="#1f2933">1 · Photoshoot</text>
<text text-anchor="middle" x="371" y="-153" font-family="Inter" font-size="11.00" fill="#1f2933">LlmAgent + 1 MCPToolset</text>
<text text-anchor="middle" x="371" y="-141" font-family="Inter" font-size="11.00" fill="#1f2933">(tool_filter)</text>
</g>
<!-- t0&#45;&gt;p1 -->
<g id="edge1" class="edge">
<title>t0&#45;&gt;p1</title>
<path fill="none" stroke="#1f2933" stroke-width="1.3" d="M181.15,-155.8C213.29,-155.8 249.49,-155.8 281.53,-155.8"/>
<polygon fill="#1f2933" stroke="#1f2933" stroke-width="1.3" points="281.77,-159.3 291.77,-155.8 281.77,-152.3 281.77,-159.3"/>
<text text-anchor="middle" x="236.5" y="-158.6" font-family="JetBrains Mono" font-size="9.00">+1 construct</text>
</g>
<!-- p2 -->
<g id="node3" class="node">
<title>p2</title>
<path fill="#e8e6fd" stroke="#5b4fe9" stroke-width="1.6" d="M721.51,-177.8C721.51,-177.8 581.51,-177.8 581.51,-177.8 575.51,-177.8 569.51,-171.8 569.51,-165.8 569.51,-165.8 569.51,-145.8 569.51,-145.8 569.51,-139.8 575.51,-133.8 581.51,-133.8 581.51,-133.8 721.51,-133.8 721.51,-133.8 727.51,-133.8 733.51,-139.8 733.51,-145.8 733.51,-145.8 733.51,-165.8 733.51,-165.8 733.51,-171.8 727.51,-177.8 721.51,-177.8"/>
<text text-anchor="middle" x="651.51" y="-165" font-family="Inter" font-size="11.00" fill="#1f2933">2 · Director / Videographer</text>
<text text-anchor="middle" x="651.51" y="-153" font-family="Inter" font-size="11.00" fill="#1f2933">LlmAgent + 1 MCPToolset</text>
<text text-anchor="middle" x="651.51" y="-141" font-family="Inter" font-size="11.00" fill="#1f2933">(veo footguns)</text>
</g>
<!-- p1&#45;&gt;p2 -->
<g id="edge2" class="edge">
<title>p1&#45;&gt;p2</title>
<path fill="none" stroke="#1f2933" stroke-width="1.3" d="M450.32,-155.8C484.15,-155.8 523.95,-155.8 559.12,-155.8"/>
<polygon fill="#1f2933" stroke="#1f2933" stroke-width="1.3" points="559.38,-159.3 569.38,-155.8 559.38,-152.3 559.38,-159.3"/>
<text text-anchor="middle" x="505.5" y="-158.6" font-family="JetBrains Mono" font-size="9.00">+1 construct</text>
</g>
<!-- m_p1 -->
<g id="node7" class="node">
<title>m_p1</title>
<polygon fill="#dbf3f1" stroke="#00a39c" stroke-width="1.6" points="688.01,-104.8 619.01,-104.8 615.01,-100.8 615.01,-68.8 684.01,-68.8 688.01,-72.8 688.01,-104.8"/>
<polyline fill="none" stroke="#00a39c" stroke-width="1.6" points="684.01,-100.8 615.01,-100.8 "/>
<polyline fill="none" stroke="#00a39c" stroke-width="1.6" points="684.01,-100.8 684.01,-68.8 "/>
<polyline fill="none" stroke="#00a39c" stroke-width="1.6" points="684.01,-100.8 688.01,-104.8 "/>
<text text-anchor="middle" x="651.51" y="-84.6" font-family="Inter" font-size="9.00" fill="#1f2933">nanobanana</text>
</g>
<!-- p1&#45;&gt;m_p1 -->
<g id="edge6" class="edge">
<title>p1&#45;&gt;m_p1</title>
<path fill="none" stroke="#00a39c" stroke-width="1.3" stroke-dasharray="5,2" d="M450.32,-136.4C504.38,-123 573.7,-105.83 614.97,-95.6"/>
</g>
<!-- g_start -->
<g id="node11" class="node">
<title>g_start</title>
<ellipse fill="#fdf0ce" stroke="#f9a825" stroke-width="1.6" cx="651.51" cy="-19.8" rx="90.52" ry="19.6"/>
<text text-anchor="middle" x="651.51" y="-22.6" font-family="Inter" font-size="9.00" fill="#1f2933">Gemini art&#45;directs</text>
<text text-anchor="middle" x="651.51" y="-12.6" font-family="Inter" font-size="9.00" fill="#1f2933">from the very first agent</text>
</g>
<!-- p1&#45;&gt;g_start -->
<g id="edge10" class="edge">
<title>p1&#45;&gt;g_start</title>
<path fill="none" stroke="#f9a825" stroke-width="1.3" stroke-dasharray="5,2" d="M409.27,-133.79C446.86,-112.04 506.92,-78.53 561,-53.8 574.3,-47.71 589.04,-41.8 602.65,-36.65"/>
</g>
<!-- p3 -->
<g id="node4" class="node">
<title>p3</title>
<path fill="#e8e6fd" stroke="#5b4fe9" stroke-width="1.6" d="M1005.02,-177.8C1005.02,-177.8 865.02,-177.8 865.02,-177.8 859.02,-177.8 853.02,-171.8 853.02,-165.8 853.02,-165.8 853.02,-145.8 853.02,-145.8 853.02,-139.8 859.02,-133.8 865.02,-133.8 865.02,-133.8 1005.02,-133.8 1005.02,-133.8 1011.02,-133.8 1017.02,-139.8 1017.02,-145.8 1017.02,-145.8 1017.02,-165.8 1017.02,-165.8 1017.02,-171.8 1011.02,-177.8 1005.02,-177.8"/>
<text text-anchor="middle" x="935.02" y="-165" font-family="Inter" font-size="11.00" fill="#1f2933">3 · Music Producer</text>
<text text-anchor="middle" x="935.02" y="-153" font-family="Inter" font-size="11.00" fill="#1f2933">LlmAgent + 3 MCPToolsets</text>
<text text-anchor="middle" x="935.02" y="-141" font-family="Inter" font-size="11.00" fill="#1f2933">(tool_name_prefix)</text>
</g>
<!-- p2&#45;&gt;p3 -->
<g id="edge3" class="edge">
<title>p2&#45;&gt;p3</title>
<path fill="none" stroke="#1f2933" stroke-width="1.3" d="M733.56,-155.8C767.56,-155.8 807.27,-155.8 842.33,-155.8"/>
<polygon fill="#1f2933" stroke="#1f2933" stroke-width="1.3" points="842.57,-159.3 852.57,-155.8 842.57,-152.3 842.57,-159.3"/>
<text text-anchor="middle" x="797.52" y="-158.6" font-family="JetBrains Mono" font-size="9.00">+1 construct</text>
</g>
<!-- m_p2 -->
<g id="node8" class="node">
<title>m_p2</title>
<polygon fill="#dbf3f1" stroke="#00a39c" stroke-width="1.6" points="962.02,-104.8 912.02,-104.8 908.02,-100.8 908.02,-68.8 958.02,-68.8 962.02,-72.8 962.02,-104.8"/>
<polyline fill="none" stroke="#00a39c" stroke-width="1.6" points="958.02,-100.8 908.02,-100.8 "/>
<polyline fill="none" stroke="#00a39c" stroke-width="1.6" points="958.02,-100.8 958.02,-68.8 "/>
<polyline fill="none" stroke="#00a39c" stroke-width="1.6" points="958.02,-100.8 962.02,-104.8 "/>
<text text-anchor="middle" x="935.02" y="-84.6" font-family="Inter" font-size="9.00" fill="#1f2933">veo</text>
</g>
<!-- p2&#45;&gt;m_p2 -->
<g id="edge7" class="edge">
<title>p2&#45;&gt;m_p2</title>
<path fill="none" stroke="#00a39c" stroke-width="1.3" stroke-dasharray="5,2" d="M733.56,-135.93C792.52,-121.48 868.64,-102.82 907.95,-93.19"/>
</g>
<!-- w1 -->
<g id="node5" class="node">
<title>w1</title>
<path fill="#e8e6fd" stroke="#5b4fe9" stroke-width="1.6" d="M1300.02,-216.8C1300.02,-216.8 1140.02,-216.8 1140.02,-216.8 1134.02,-216.8 1128.02,-210.8 1128.02,-204.8 1128.02,-204.8 1128.02,-184.8 1128.02,-184.8 1128.02,-178.8 1134.02,-172.8 1140.02,-172.8 1140.02,-172.8 1300.02,-172.8 1300.02,-172.8 1306.02,-172.8 1312.02,-178.8 1312.02,-184.8 1312.02,-184.8 1312.02,-204.8 1312.02,-204.8 1312.02,-210.8 1306.02,-216.8 1300.02,-216.8"/>
<text text-anchor="middle" x="1220.02" y="-204" font-family="Inter" font-size="11.00" fill="#1f2933">4 · Scriptwriter / Storyboarder</text>
<text text-anchor="middle" x="1220.02" y="-192" font-family="Inter" font-size="11.00" fill="#1f2933">SequentialAgent + output_key</text>
<text text-anchor="middle" x="1220.02" y="-180" font-family="Inter" font-size="11.00" fill="#1f2933">(state handoff)</text>
</g>
<!-- p3&#45;&gt;w1 -->
<g id="edge4" class="edge">
<title>p3&#45;&gt;w1</title>
<path fill="none" stroke="#1f2933" stroke-width="1.3" d="M1017.12,-166.97C1048.5,-171.3 1084.76,-176.3 1117.81,-180.85"/>
<polygon fill="#1f2933" stroke="#1f2933" stroke-width="1.3" points="1117.58,-184.35 1127.96,-182.25 1118.53,-177.42 1117.58,-184.35"/>
<text text-anchor="middle" x="1072.52" y="-180.6" font-family="JetBrains Mono" font-size="9.00">+1 construct</text>
</g>
<!-- m_p3 -->
<g id="node9" class="node">
<title>m_p3</title>
<polygon fill="#dbf3f1" stroke="#00a39c" stroke-width="1.6" points="1273.02,-143.8 1171.02,-143.8 1167.02,-139.8 1167.02,-107.8 1269.02,-107.8 1273.02,-111.8 1273.02,-143.8"/>
<polyline fill="none" stroke="#00a39c" stroke-width="1.6" points="1269.02,-139.8 1167.02,-139.8 "/>
<polyline fill="none" stroke="#00a39c" stroke-width="1.6" points="1269.02,-139.8 1269.02,-107.8 "/>
<polyline fill="none" stroke="#00a39c" stroke-width="1.6" points="1269.02,-139.8 1273.02,-143.8 "/>
<text text-anchor="middle" x="1220.02" y="-123.6" font-family="Inter" font-size="9.00" fill="#1f2933">lyria + TTS + avtool</text>
</g>
<!-- p3&#45;&gt;m_p3 -->
<g id="edge8" class="edge">
<title>p3&#45;&gt;m_p3</title>
<path fill="none" stroke="#00a39c" stroke-width="1.3" stroke-dasharray="5,2" d="M1017.12,-147.2C1065.3,-142.09 1124.99,-135.77 1166.92,-131.32"/>
</g>
<!-- r1 -->
<g id="node6" class="node">
<title>r1</title>
<path fill="#e8e6fd" stroke="#5b4fe9" stroke-width="1.6" d="M1618.02,-216.8C1618.02,-216.8 1435.02,-216.8 1435.02,-216.8 1429.02,-216.8 1423.02,-210.8 1423.02,-204.8 1423.02,-204.8 1423.02,-184.8 1423.02,-184.8 1423.02,-178.8 1429.02,-172.8 1435.02,-172.8 1435.02,-172.8 1618.02,-172.8 1618.02,-172.8 1624.02,-172.8 1630.02,-178.8 1630.02,-184.8 1630.02,-184.8 1630.02,-204.8 1630.02,-204.8 1630.02,-210.8 1624.02,-216.8 1618.02,-216.8"/>
<text text-anchor="middle" x="1526.52" y="-204" font-family="Inter" font-size="11.00" fill="#1f2933">5 · Ad creative&#45;director&#39;s assistant</text>
<text text-anchor="middle" x="1526.52" y="-192" font-family="Inter" font-size="11.00" fill="#1f2933">SequentialAgent ⊃ ParallelAgent</text>
<text text-anchor="middle" x="1526.52" y="-180" font-family="Inter" font-size="11.00" fill="#1f2933">+ AgentTool (composes 1–3)</text>
</g>
<!-- w1&#45;&gt;r1 -->
<g id="edge5" class="edge">
<title>w1&#45;&gt;r1</title>
<path fill="none" stroke="#1f2933" stroke-width="1.3" d="M1312.38,-194.8C1343.89,-194.8 1379.57,-194.8 1412.6,-194.8"/>
<polygon fill="#1f2933" stroke="#1f2933" stroke-width="1.3" points="1412.76,-198.3 1422.76,-194.8 1412.76,-191.3 1412.76,-198.3"/>
<text text-anchor="middle" x="1367.52" y="-197.6" font-family="JetBrains Mono" font-size="9.00">+1 construct</text>
</g>
<!-- m_r1 -->
<g id="node10" class="node">
<title>m_r1</title>
<polygon fill="#dbf3f1" stroke="#00a39c" stroke-width="1.6" points="1799.04,-245.8 1731.04,-245.8 1727.04,-241.8 1727.04,-209.8 1795.04,-209.8 1799.04,-213.8 1799.04,-245.8"/>
<polyline fill="none" stroke="#00a39c" stroke-width="1.6" points="1795.04,-241.8 1727.04,-241.8 "/>
<polyline fill="none" stroke="#00a39c" stroke-width="1.6" points="1795.04,-241.8 1795.04,-209.8 "/>
<polyline fill="none" stroke="#00a39c" stroke-width="1.6" points="1795.04,-241.8 1799.04,-245.8 "/>
<text text-anchor="middle" x="1763.04" y="-225.6" font-family="Inter" font-size="9.00" fill="#1f2933">every server</text>
</g>
<!-- r1&#45;&gt;m_r1 -->
<g id="edge9" class="edge">
<title>r1&#45;&gt;m_r1</title>
<path fill="none" stroke="#00a39c" stroke-width="1.3" stroke-dasharray="5,2" d="M1630.04,-209.23C1664.68,-214.1 1701.06,-219.22 1726.83,-222.84"/>
</g>
<!-- g_end -->
<g id="node12" class="node">
<title>g_end</title>
<ellipse fill="#fdf0ce" stroke="#f9a825" stroke-width="1.6" cx="1763.04" cy="-160.8" rx="82.05" ry="19.6"/>
<text text-anchor="middle" x="1763.04" y="-163.6" font-family="Inter" font-size="9.00" fill="#1f2933">Gemini plans a</text>
<text text-anchor="middle" x="1763.04" y="-153.6" font-family="Inter" font-size="9.00" fill="#1f2933">duration&#45;budgeted ad</text>
</g>
<!-- r1&#45;&gt;g_end -->
<g id="edge11" class="edge">
<title>r1&#45;&gt;g_end</title>
<path fill="none" stroke="#f9a825" stroke-width="1.3" stroke-dasharray="5,2" d="M1630.04,-179.94C1651.12,-176.88 1672.84,-173.73 1692.43,-170.89"/>
</g>
<!-- L_adk -->
<g id="node13" class="node">
<title>L_adk</title>
<path fill="#e8e6fd" stroke="#5b4fe9" stroke-width="1.6" d="M119.5,-259.8C119.5,-259.8 61.5,-259.8 61.5,-259.8 55.5,-259.8 49.5,-253.8 49.5,-247.8 49.5,-247.8 49.5,-235.8 49.5,-235.8 49.5,-229.8 55.5,-223.8 61.5,-223.8 61.5,-223.8 119.5,-223.8 119.5,-223.8 125.5,-223.8 131.5,-229.8 131.5,-235.8 131.5,-235.8 131.5,-247.8 131.5,-247.8 131.5,-253.8 125.5,-259.8 119.5,-259.8"/>
<text text-anchor="middle" x="90.5" y="-239.6" font-family="Inter" font-size="9.00" fill="#1f2933">ADK construct</text>
</g>
<!-- L_mcp -->
<g id="node14" class="node">
<title>L_mcp</title>
<polygon fill="#dbf3f1" stroke="#00a39c" stroke-width="1.6" points="412.5,-259.8 333.5,-259.8 329.5,-255.8 329.5,-223.8 408.5,-223.8 412.5,-227.8 412.5,-259.8"/>
<polyline fill="none" stroke="#00a39c" stroke-width="1.6" points="408.5,-255.8 329.5,-255.8 "/>
<polyline fill="none" stroke="#00a39c" stroke-width="1.6" points="408.5,-255.8 408.5,-223.8 "/>
<polyline fill="none" stroke="#00a39c" stroke-width="1.6" points="408.5,-255.8 412.5,-259.8 "/>
<text text-anchor="middle" x="371" y="-239.6" font-family="Inter" font-size="9.00" fill="#1f2933">genmedia MCP</text>
</g>
<!-- L_adk&#45;&gt;L_mcp -->
<!-- L_gemini -->
<g id="node15" class="node">
<title>L_gemini</title>
<ellipse fill="#fdf0ce" stroke="#f9a825" stroke-width="1.6" cx="651.51" cy="-241.8" rx="54.7" ry="18"/>
<text text-anchor="middle" x="651.51" y="-239.6" font-family="Inter" font-size="9.00" fill="#1f2933">Gemini reasoning</text>
</g>
<!-- L_mcp&#45;&gt;L_gemini -->
</g>
</svg>
